<svg xmlns="http://www.w3.org/2000/svg" xmlns:xlink="http://www.w3.org/1999/xlink" width="200" zoomAndPan="magnify" viewBox="0 0 150 149.999998" height="200" preserveAspectRatio="xMidYMid meet" version="1.0"><defs><clipPath id="6907406772"><path d="M 33.074219 55 L 96 55 L 96 117.808594 L 33.074219 117.808594 Z M 33.074219 55 " clip-rule="nonzero"/></clipPath><clipPath id="96a2fc5537"><path d="M 63 32.308594 L 88 32.308594 L 88 56 L 63 56 Z M 63 32.308594 " clip-rule="nonzero"/></clipPath><clipPath id="2feb5d16d0"><path d="M 33.074219 55 L 96 55 L 96 117.808594 L 33.074219 117.808594 Z M 33.074219 55 " clip-rule="nonzero"/></clipPath><clipPath id="a688dbdb30"><path d="M 63 32.308594 L 88 32.308594 L 88 56 L 63 56 Z M 63 32.308594 " clip-rule="nonzero"/></clipPath></defs><g clip-path="url(#6907406772)"><path fill="#000000" d="M 94.644531 86.046875 C 94.578125 85.992188 94.503906 85.945312 94.429688 85.90625 L 94.371094 85.878906 C 94.351562 85.867188 94.332031 85.859375 94.3125 85.851562 L 94.253906 85.828125 C 94.234375 85.820312 94.222656 85.820312 94.210938 85.8125 C 89.292969 84.1875 84.398438 82.492188 79.546875 80.683594 C 75.863281 79.332031 72.800781 76.386719 71.335938 72.742188 C 71.226562 72.476562 71.125 72.195312 71.027344 71.917969 C 69.773438 68.171875 68.148438 63.199219 66.898438 59.433594 C 66.757812 59.007812 66.339844 57.785156 66.207031 57.382812 C 66.207031 57.382812 66.152344 57.214844 66.152344 57.214844 C 66.027344 56.796875 65.75 56.421875 65.363281 56.199219 C 64.746094 55.832031 63.914062 55.898438 63.359375 56.359375 C 63.148438 56.53125 62.980469 56.753906 62.871094 57.003906 C 62.359375 58.28125 61.851562 59.578125 61.355469 60.859375 C 59.992188 64.390625 58.585938 68.09375 57.261719 71.632812 C 56.632812 73.300781 55.691406 74.84375 54.488281 76.160156 C 53.136719 77.640625 51.460938 78.828125 49.613281 79.605469 C 49.160156 79.800781 48.113281 80.179688 47.632812 80.367188 C 43.65625 81.882812 38.476562 83.84375 34.519531 85.363281 C 33.40625 85.816406 33.074219 87.238281 33.847656 88.148438 C 34.046875 88.386719 34.328125 88.566406 34.621094 88.667969 C 39.476562 90.394531 44.429688 92.089844 49.300781 93.757812 C 50.171875 94.058594 51.023438 94.441406 51.828125 94.910156 C 54.253906 96.308594 56.246094 98.457031 57.464844 100.980469 C 57.644531 101.347656 57.808594 101.726562 57.957031 102.109375 C 59.761719 106.863281 61.53125 111.683594 63.199219 116.484375 C 63.238281 116.589844 63.292969 116.753906 63.335938 116.855469 C 63.636719 117.539062 64.472656 117.804688 65.128906 117.46875 C 65.347656 117.355469 65.535156 117.175781 65.660156 116.957031 L 65.691406 116.898438 C 65.703125 116.878906 65.710938 116.859375 65.71875 116.839844 L 65.746094 116.78125 L 65.78125 116.691406 C 67.679688 111.917969 69.660156 107.089844 71.519531 102.308594 C 71.851562 101.464844 72.261719 100.652344 72.738281 99.886719 C 73.933594 97.972656 75.585938 96.351562 77.519531 95.1875 C 78.148438 94.808594 78.804688 94.480469 79.484375 94.199219 C 84.09375 92.429688 88.773438 90.53125 93.339844 88.648438 L 94.007812 88.375 L 94.175781 88.304688 L 94.257812 88.269531 C 94.460938 88.191406 94.65625 88.0625 94.800781 87.886719 C 95.261719 87.351562 95.191406 86.492188 94.644531 86.046875 Z M 94.644531 86.046875 " fill-opacity="1" fill-rule="nonzero"/></g><g clip-path="url(#96a2fc5537)"><path fill="#000000" d="M 64.261719 44.960938 C 64.335938 45.023438 64.429688 45.070312 64.519531 45.097656 C 65.902344 45.566406 67.296875 46.019531 68.6875 46.472656 C 69.335938 46.6875 69.960938 46.980469 70.539062 47.351562 C 71.851562 48.1875 72.902344 49.429688 73.523438 50.855469 C 73.726562 51.34375 73.894531 51.84375 74.074219 52.34375 C 74.4375 53.375 74.789062 54.414062 75.125 55.457031 C 75.15625 55.554688 75.210938 55.640625 75.285156 55.714844 C 75.585938 55.996094 76.082031 55.914062 76.277344 55.558594 C 76.871094 54.179688 77.449219 52.796875 78.011719 51.40625 C 78.816406 49.394531 80.394531 47.714844 82.34375 46.765625 C 82.457031 46.714844 82.574219 46.65625 82.6875 46.609375 C 83.433594 46.292969 84.96875 45.625 85.738281 45.289062 L 86.714844 44.867188 C 86.753906 44.847656 86.8125 44.824219 86.851562 44.804688 C 87.183594 44.644531 87.234375 44.175781 86.945312 43.949219 C 86.894531 43.914062 86.835938 43.886719 86.78125 43.867188 C 85.386719 43.421875 84.003906 42.945312 82.632812 42.4375 C 80.496094 41.652344 78.765625 39.890625 78.003906 37.753906 C 77.945312 37.59375 77.890625 37.429688 77.839844 37.265625 C 77.414062 35.871094 76.976562 34.417969 76.503906 33.042969 C 76.175781 32.3125 75.140625 32.359375 74.855469 33.097656 C 74.457031 34.097656 74.035156 35.203125 73.648438 36.210938 C 73.40625 36.828125 73.179688 37.515625 72.867188 38.101562 C 71.980469 39.816406 70.46875 41.203125 68.671875 41.917969 C 67.457031 42.394531 65.707031 43.0625 64.496094 43.546875 C 64.371094 43.59375 64.257812 43.667969 64.164062 43.773438 C 63.855469 44.113281 63.898438 44.671875 64.261719 44.960938 Z M 64.261719 44.960938 " fill-opacity="1" fill-rule="nonzero"/></g><path fill="#000000" d="M 116.496094 63.441406 C 114.730469 62.902344 112.980469 62.316406 111.253906 61.671875 C 108.589844 60.695312 106.457031 58.472656 105.554688 55.792969 C 105.402344 55.367188 105.136719 54.359375 104.996094 53.90625 C 104.621094 52.597656 104.230469 51.296875 103.8125 50.003906 C 103.800781 49.964844 103.78125 49.910156 103.761719 49.867188 C 103.269531 48.785156 101.734375 48.863281 101.328125 49.964844 C 100.640625 51.660156 99.980469 53.363281 99.332031 55.070312 C 99.1875 55.445312 99.023438 55.8125 98.839844 56.167969 C 97.914062 57.949219 96.449219 59.449219 94.679688 60.398438 C 94.414062 60.542969 94.136719 60.671875 93.859375 60.792969 C 93.652344 60.878906 92.578125 61.304688 92.335938 61.394531 C 91.382812 61.769531 89.335938 62.570312 88.421875 62.949219 C 87.96875 63.152344 87.683594 63.648438 87.730469 64.140625 C 87.761719 64.605469 88.09375 65.035156 88.542969 65.175781 C 90.277344 65.75 92.023438 66.292969 93.769531 66.84375 C 94.578125 67.097656 95.359375 67.453125 96.078125 67.90625 C 97.714844 68.929688 99.03125 70.464844 99.796875 72.238281 C 99.859375 72.386719 99.925781 72.539062 99.980469 72.691406 C 100.609375 74.40625 101.183594 76.140625 101.726562 77.882812 C 101.742188 77.925781 101.761719 77.992188 101.777344 78.035156 C 102.011719 78.671875 102.855469 78.800781 103.292969 78.292969 C 103.367188 78.210938 103.421875 78.109375 103.464844 78.007812 L 103.53125 77.855469 C 104.242188 76.226562 104.957031 74.605469 105.628906 72.964844 C 105.789062 72.585938 105.964844 72.214844 106.160156 71.859375 C 106.359375 71.5 106.574219 71.152344 106.808594 70.820312 C 107.957031 69.1875 109.550781 67.871094 111.367188 67.046875 C 113.019531 66.324219 114.800781 65.496094 116.445312 64.757812 L 116.484375 64.742188 L 116.511719 64.730469 C 116.609375 64.6875 116.699219 64.621094 116.769531 64.535156 C 117.074219 64.175781 116.9375 63.601562 116.496094 63.441406 Z M 116.496094 63.441406 " fill-opacity="1" fill-rule="nonzero"/><g clip-path="url(#2feb5d16d0)"><path fill="#000000" d="M 94.644531 86.046875 C 94.578125 85.992188 94.503906 85.945312 94.429688 85.90625 L 94.371094 85.878906 C 94.351562 85.867188 94.332031 85.859375 94.3125 85.851562 L 94.253906 85.828125 C 94.234375 85.820312 94.222656 85.820312 94.210938 85.8125 C 89.292969 84.1875 84.398438 82.492188 79.546875 80.683594 C 75.863281 79.332031 72.800781 76.386719 71.335938 72.742188 C 71.226562 72.476562 71.125 72.195312 71.027344 71.917969 C 69.773438 68.171875 68.148438 63.199219 66.898438 59.433594 C 66.757812 59.007812 66.339844 57.785156 66.207031 57.382812 C 66.207031 57.382812 66.152344 57.214844 66.152344 57.214844 C 66.027344 56.796875 65.75 56.421875 65.363281 56.199219 C 64.746094 55.832031 63.914062 55.898438 63.359375 56.359375 C 63.148438 56.53125 62.980469 56.753906 62.871094 57.003906 C 62.359375 58.28125 61.851562 59.578125 61.355469 60.859375 C 59.992188 64.390625 58.585938 68.09375 57.261719 71.632812 C 56.632812 73.300781 55.691406 74.84375 54.488281 76.160156 C 53.136719 77.640625 51.460938 78.828125 49.613281 79.605469 C 49.160156 79.800781 48.113281 80.179688 47.632812 80.367188 C 43.65625 81.882812 38.476562 83.84375 34.519531 85.363281 C 33.40625 85.816406 33.074219 87.238281 33.847656 88.148438 C 34.046875 88.386719 34.328125 88.566406 34.621094 88.667969 C 39.476562 90.394531 44.429688 92.089844 49.300781 93.757812 C 50.171875 94.058594 51.023438 94.441406 51.828125 94.910156 C 54.253906 96.308594 56.246094 98.457031 57.464844 100.980469 C 57.644531 101.347656 57.808594 101.726562 57.957031 102.109375 C 59.761719 106.863281 61.53125 111.683594 63.199219 116.484375 C 63.238281 116.589844 63.292969 116.753906 63.335938 116.855469 C 63.636719 117.539062 64.472656 117.804688 65.128906 117.46875 C 65.347656 117.355469 65.535156 117.175781 65.660156 116.957031 L 65.691406 116.898438 C 65.703125 116.878906 65.710938 116.859375 65.71875 116.839844 L 65.746094 116.78125 L 65.78125 116.691406 C 67.679688 111.917969 69.660156 107.089844 71.519531 102.308594 C 71.851562 101.464844 72.261719 100.652344 72.738281 99.886719 C 73.933594 97.972656 75.585938 96.351562 77.519531 95.1875 C 78.148438 94.808594 78.804688 94.480469 79.484375 94.199219 C 84.09375 92.429688 88.773438 90.53125 93.339844 88.648438 L 94.007812 88.375 L 94.175781 88.304688 L 94.257812 88.269531 C 94.460938 88.191406 94.65625 88.0625 94.800781 87.886719 C 95.261719 87.351562 95.191406 86.492188 94.644531 86.046875 Z M 94.644531 86.046875 " fill-opacity="1" fill-rule="nonzero"/></g><g clip-path="url(#a688dbdb30)"><path fill="#000000" d="M 64.261719 44.960938 C 64.335938 45.023438 64.429688 45.070312 64.519531 45.097656 C 65.902344 45.566406 67.296875 46.019531 68.6875 46.472656 C 69.335938 46.6875 69.960938 46.980469 70.539062 47.351562 C 71.851562 48.1875 72.902344 49.429688 73.523438 50.855469 C 73.726562 51.34375 73.894531 51.84375 74.074219 52.34375 C 74.4375 53.375 74.789062 54.414062 75.125 55.457031 C 75.15625 55.554688 75.210938 55.640625 75.285156 55.714844 C 75.585938 55.996094 76.082031 55.914062 76.277344 55.558594 C 76.871094 54.179688 77.449219 52.796875 78.011719 51.40625 C 78.816406 49.394531 80.394531 47.714844 82.34375 46.765625 C 82.457031 46.714844 82.574219 46.65625 82.6875 46.609375 C 83.433594 46.292969 84.96875 45.625 85.738281 45.289062 L 86.714844 44.867188 C 86.753906 44.847656 86.8125 44.824219 86.851562 44.804688 C 87.183594 44.644531 87.234375 44.175781 86.945312 43.949219 C 86.894531 43.914062 86.835938 43.886719 86.78125 43.867188 C 85.386719 43.421875 84.003906 42.945312 82.632812 42.4375 C 80.496094 41.652344 78.765625 39.890625 78.003906 37.753906 C 77.945312 37.59375 77.890625 37.429688 77.839844 37.265625 C 77.414062 35.871094 76.976562 34.417969 76.503906 33.042969 C 76.175781 32.3125 75.140625 32.359375 74.855469 33.097656 C 74.457031 34.097656 74.035156 35.203125 73.648438 36.210938 C 73.40625 36.828125 73.179688 37.515625 72.867188 38.101562 C 71.980469 39.816406 70.46875 41.203125 68.671875 41.917969 C 67.457031 42.394531 65.707031 43.0625 64.496094 43.546875 C 64.371094 43.59375 64.257812 43.667969 64.164062 43.773438 C 63.855469 44.113281 63.898438 44.671875 64.261719 44.960938 Z M 64.261719 44.960938 " fill-opacity="1" fill-rule="nonzero"/></g><path fill="#000000" d="M 116.496094 63.441406 C 114.730469 62.902344 112.980469 62.316406 111.253906 61.671875 C 108.589844 60.695312 106.457031 58.472656 105.554688 55.792969 C 105.402344 55.367188 105.136719 54.359375 104.996094 53.90625 C 104.621094 52.597656 104.230469 51.296875 103.8125 50.003906 C 103.800781 49.964844 103.78125 49.910156 103.761719 49.867188 C 103.269531 48.785156 101.734375 48.863281 101.328125 49.964844 C 100.640625 51.660156 99.980469 53.363281 99.332031 55.070312 C 99.1875 55.445312 99.023438 55.8125 98.839844 56.167969 C 97.914062 57.949219 96.449219 59.449219 94.679688 60.398438 C 94.414062 60.542969 94.136719 60.671875 93.859375 60.792969 C 93.652344 60.878906 92.578125 61.304688 92.335938 61.394531 C 91.382812 61.769531 89.335938 62.570312 88.421875 62.949219 C 87.96875 63.152344 87.683594 63.648438 87.730469 64.140625 C 87.761719 64.605469 88.09375 65.035156 88.542969 65.175781 C 90.277344 65.75 92.023438 66.292969 93.769531 66.84375 C 94.578125 67.097656 95.359375 67.453125 96.078125 67.90625 C 97.714844 68.929688 99.03125 70.464844 99.796875 72.238281 C 99.859375 72.386719 99.925781 72.539062 99.980469 72.691406 C 100.609375 74.40625 101.183594 76.140625 101.726562 77.882812 C 101.742188 77.925781 101.761719 77.992188 101.777344 78.035156 C 102.011719 78.671875 102.855469 78.800781 103.292969 78.292969 C 103.367188 78.210938 103.421875 78.109375 103.464844 78.007812 L 103.53125 77.855469 C 104.242188 76.226562 104.957031 74.605469 105.628906 72.964844 C 105.789062 72.585938 105.964844 72.214844 106.160156 71.859375 C 106.359375 71.5 106.574219 71.152344 106.808594 70.820312 C 107.957031 69.1875 109.550781 67.871094 111.367188 67.046875 C 113.019531 66.324219 114.800781 65.496094 116.445312 64.757812 L 116.484375 64.742188 L 116.511719 64.730469 C 116.609375 64.6875 116.699219 64.621094 116.769531 64.535156 C 117.074219 64.175781 116.9375 63.601562 116.496094 63.441406 Z M 116.496094 63.441406 " fill-opacity="1" fill-rule="nonzero"/></svg>