<svg xmlns="http://www.w3.org/2000/svg" xmlns:xlink="http://www.w3.org/1999/xlink" width="200" zoomAndPan="magnify" viewBox="0 0 150 149.999998" height="200" preserveAspectRatio="xMidYMid meet" version="1.0"><defs><g/><clipPath id="3a29c9a7c1"><path d="M 41 26 L 109.574219 26 L 109.574219 100 L 41 100 Z M 41 26 " clip-rule="nonzero"/></clipPath><clipPath id="6f5ea36ae1"><path d="M 1 0.679688 L 35 0.679688 L 35 43 L 1 43 Z M 1 0.679688 " clip-rule="nonzero"/></clipPath><clipPath id="05e3816adc"><rect x="0" width="37" y="0" height="53"/></clipPath></defs><path fill="#000000" d="M 90 104.457031 L 60.640625 104.457031 C 60.640625 105.433594 60.640625 108.359375 60.640625 109.335938 C 60.640625 117.625 67 119.089844 75.320312 119.089844 C 83.640625 119.089844 90 117.625 90 109.335938 C 90 108.359375 90 105.433594 90 104.457031 Z M 90 104.457031 " fill-opacity="1" fill-rule="nonzero"/><path fill="#000000" d="M 82.660156 114.210938 L 67.980469 114.210938 C 67.980469 114.699219 67.980469 116.164062 67.980469 116.652344 C 67.980469 120.550781 71.40625 123.964844 75.320312 123.964844 C 79.234375 123.964844 82.660156 120.550781 82.660156 116.652344 C 82.660156 116.164062 82.660156 114.699219 82.660156 114.210938 Z M 82.660156 114.210938 " fill-opacity="1" fill-rule="nonzero"/><g clip-path="url(#3a29c9a7c1)"><path fill="#000000" d="M 109.574219 60.558594 C 109.574219 41.535156 93.914062 25.925781 74.832031 26.414062 C 56.722656 26.902344 41.554688 41.535156 41.066406 59.09375 C 40.574219 70.800781 45.957031 81.53125 54.765625 87.871094 C 58.683594 90.800781 60.640625 95.1875 60.640625 99.578125 L 90 99.578125 C 90 95.1875 91.957031 90.800781 95.382812 87.871094 C 104.191406 82.019531 109.574219 71.777344 109.574219 60.558594 Z M 109.574219 60.558594 " fill-opacity="1" fill-rule="nonzero"/></g><g transform="matrix(1, 0, 0, 1, 58, 43)"><g clip-path="url(#05e3816adc)"><g clip-path="url(#6f5ea36ae1)"><g fill="#ffffff" fill-opacity="1"><g transform="translate(0.232697, 35.577022)"><g><path d="M 11.5 -23.28125 L 1.390625 -23.28125 L 1.390625 -34.796875 L 34.234375 -34.796875 L 34.234375 -23.28125 L 23.984375 -23.28125 L 23.984375 6.953125 L 11.5 6.953125 Z M 11.5 -23.28125 "/></g></g></g></g></g></g></svg>