<svg xmlns="http://www.w3.org/2000/svg" xmlns:xlink="http://www.w3.org/1999/xlink" width="200" zoomAndPan="magnify" viewBox="0 0 150 149.999998" height="200" preserveAspectRatio="xMidYMid meet" version="1.0"><defs><clipPath id="7348b60d76"><path d="M 35.421875 63.753906 L 135 63.753906 L 135 86.132812 L 35.421875 86.132812 Z M 35.421875 63.753906 " clip-rule="nonzero"/></clipPath><clipPath id="7f1631b2aa"><path d="M 41.421875 63.753906 L 129 63.753906 C 130.589844 63.753906 132.117188 64.382812 133.242188 65.507812 C 134.367188 66.636719 135 68.160156 135 69.753906 L 135 80.132812 C 135 81.722656 134.367188 83.25 133.242188 84.375 C 132.117188 85.5 130.589844 86.132812 129 86.132812 L 41.421875 86.132812 C 39.832031 86.132812 38.304688 85.5 37.179688 84.375 C 36.054688 83.25 35.421875 81.722656 35.421875 80.132812 L 35.421875 69.753906 C 35.421875 68.160156 36.054688 66.636719 37.179688 65.507812 C 38.304688 64.382812 39.832031 63.753906 41.421875 63.753906 Z M 41.421875 63.753906 " clip-rule="nonzero"/></clipPath><clipPath id="d686753c0e"><path d="M 0.421875 0.753906 L 100 0.753906 L 100 23.132812 L 0.421875 23.132812 Z M 0.421875 0.753906 " clip-rule="nonzero"/></clipPath><clipPath id="6015d10e85"><path d="M 6.421875 0.753906 L 94 0.753906 C 95.589844 0.753906 97.117188 1.382812 98.242188 2.507812 C 99.367188 3.636719 100 5.160156 100 6.753906 L 100 17.132812 C 100 18.722656 99.367188 20.25 98.242188 21.375 C 97.117188 22.5 95.589844 23.132812 94 23.132812 L 6.421875 23.132812 C 4.832031 23.132812 3.304688 22.5 2.179688 21.375 C 1.054688 20.25 0.421875 18.722656 0.421875 17.132812 L 0.421875 6.753906 C 0.421875 5.160156 1.054688 3.636719 2.179688 2.507812 C 3.304688 1.382812 4.832031 0.753906 6.421875 0.753906 Z M 6.421875 0.753906 " clip-rule="nonzero"/></clipPath><clipPath id="917f85868f"><rect x="0" width="100" y="0" height="24"/></clipPath><clipPath id="f96a2ffd57"><path d="M 35.4375 63.753906 L 135 63.753906 L 135 86.253906 L 35.4375 86.253906 Z M 35.4375 63.753906 " clip-rule="nonzero"/></clipPath><clipPath id="484d01c2e6"><path d="M 41.4375 63.753906 L 128.980469 63.753906 C 130.570312 63.753906 132.097656 64.382812 133.222656 65.507812 C 134.347656 66.632812 134.980469 68.160156 134.980469 69.75 L 134.980469 80.125 C 134.980469 81.714844 134.347656 83.242188 133.222656 84.367188 C 132.097656 85.492188 130.570312 86.125 128.980469 86.125 L 41.4375 86.125 C 39.847656 86.125 38.320312 85.492188 37.195312 84.367188 C 36.070312 83.242188 35.4375 81.714844 35.4375 80.125 L 35.4375 69.75 C 35.4375 68.160156 36.070312 66.632812 37.195312 65.507812 C 38.320312 64.382812 39.847656 63.753906 41.4375 63.753906 Z M 41.4375 63.753906 " clip-rule="nonzero"/></clipPath><clipPath id="ac9878842d"><path d="M 16.957031 48.996094 L 124 48.996094 L 124 101.003906 L 16.957031 101.003906 Z M 16.957031 48.996094 " clip-rule="nonzero"/></clipPath><clipPath id="22d81ce774"><path d="M 26.707031 48.996094 L 114.230469 48.996094 C 116.816406 48.996094 119.292969 50.023438 121.125 51.851562 C 122.953125 53.679688 123.980469 56.160156 123.980469 58.746094 L 123.980469 91.253906 C 123.980469 93.839844 122.953125 96.320312 121.125 98.148438 C 119.292969 99.976562 116.816406 101.003906 114.230469 101.003906 L 26.707031 101.003906 C 24.121094 101.003906 21.640625 99.976562 19.8125 98.148438 C 17.984375 96.320312 16.957031 93.839844 16.957031 91.253906 L 16.957031 58.746094 C 16.957031 56.160156 17.984375 53.679688 19.8125 51.851562 C 21.640625 50.023438 24.121094 48.996094 26.707031 48.996094 Z M 26.707031 48.996094 " clip-rule="nonzero"/></clipPath><clipPath id="99c58df1a0"><path d="M 0.957031 0.996094 L 108 0.996094 L 108 53.003906 L 0.957031 53.003906 Z M 0.957031 0.996094 " clip-rule="nonzero"/></clipPath><clipPath id="efc52c82a6"><path d="M 10.707031 0.996094 L 98.230469 0.996094 C 100.816406 0.996094 103.292969 2.023438 105.125 3.851562 C 106.953125 5.679688 107.980469 8.160156 107.980469 10.746094 L 107.980469 43.253906 C 107.980469 45.839844 106.953125 48.320312 105.125 50.148438 C 103.292969 51.976562 100.816406 53.003906 98.230469 53.003906 L 10.707031 53.003906 C 8.121094 53.003906 5.640625 51.976562 3.8125 50.148438 C 1.984375 48.320312 0.957031 45.839844 0.957031 43.253906 L 0.957031 10.746094 C 0.957031 8.160156 1.984375 5.679688 3.8125 3.851562 C 5.640625 2.023438 8.121094 0.996094 10.707031 0.996094 Z M 10.707031 0.996094 " clip-rule="nonzero"/></clipPath><clipPath id="72502c7905"><rect x="0" width="108" y="0" height="54"/></clipPath><clipPath id="371f8489de"><path d="M 16.960938 48.996094 L 124 48.996094 L 124 100.746094 L 16.960938 100.746094 Z M 16.960938 48.996094 " clip-rule="nonzero"/></clipPath><clipPath id="626c8ddfa5"><path d="M 26.707031 48.996094 L 114.222656 48.996094 C 116.808594 48.996094 119.289062 50.023438 121.117188 51.851562 C 122.945312 53.679688 123.972656 56.15625 123.972656 58.742188 L 123.972656 91.253906 C 123.972656 93.839844 122.945312 96.316406 121.117188 98.148438 C 119.289062 99.976562 116.808594 101.003906 114.222656 101.003906 L 26.707031 101.003906 C 24.125 101.003906 21.644531 99.976562 19.816406 98.148438 C 17.988281 96.316406 16.960938 93.839844 16.960938 91.253906 L 16.960938 58.742188 C 16.960938 56.15625 17.988281 53.679688 19.816406 51.851562 C 21.644531 50.023438 24.125 48.996094 26.707031 48.996094 Z M 26.707031 48.996094 " clip-rule="nonzero"/></clipPath><clipPath id="6c61f0142a"><path d="M 23.28125 54.898438 L 63.03125 54.898438 L 63.03125 94.648438 L 23.28125 94.648438 Z M 23.28125 54.898438 " clip-rule="nonzero"/></clipPath></defs><g clip-path="url(#7348b60d76)"><g clip-path="url(#7f1631b2aa)"><g transform="matrix(1, 0, 0, 1, 35, 63)"><g clip-path="url(#917f85868f)"><g clip-path="url(#d686753c0e)"><g clip-path="url(#6015d10e85)"><path fill="#000000" d="M 0.421875 0.753906 L 99.996094 0.753906 L 99.996094 23.132812 L 0.421875 23.132812 Z M 0.421875 0.753906 " fill-opacity="1" fill-rule="nonzero"/></g></g></g></g></g></g><g clip-path="url(#f96a2ffd57)"><g clip-path="url(#484d01c2e6)"><path stroke-linecap="butt" transform="matrix(0.75, 0, 0, 0.75, 35.439103, 63.752211)" fill="none" stroke-linejoin="miter" d="M 7.997864 0.00226023 L 124.721836 0.00226023 C 126.841628 0.00226023 128.878087 0.840802 130.378087 2.340802 C 131.878087 3.840802 132.721837 5.877261 132.721837 7.997053 L 132.721837 21.830388 C 132.721837 23.95018 131.878087 25.986638 130.378087 27.486639 C 128.878087 28.986639 126.841628 29.830389 124.721836 29.830389 L 7.997864 29.830389 C 5.878072 29.830389 3.841613 28.986639 2.341613 27.486639 C 0.841613 25.986638 -0.00213747 23.95018 -0.00213747 21.830388 L -0.00213747 7.997053 C -0.00213747 5.877261 0.841613 3.840802 2.341613 2.340802 C 3.841613 0.840802 5.878072 0.00226023 7.997864 0.00226023 Z M 7.997864 0.00226023 " stroke="#000000" stroke-width="8" stroke-opacity="1" stroke-miterlimit="4"/></g></g><g clip-path="url(#ac9878842d)"><g clip-path="url(#22d81ce774)"><g transform="matrix(1, 0, 0, 1, 16, 48)"><g clip-path="url(#72502c7905)"><g clip-path="url(#99c58df1a0)"><g clip-path="url(#efc52c82a6)"><path fill="#000000" d="M 0.957031 0.996094 L 108.027344 0.996094 L 108.027344 53.003906 L 0.957031 53.003906 Z M 0.957031 0.996094 " fill-opacity="1" fill-rule="nonzero"/></g></g></g></g></g></g><g clip-path="url(#371f8489de)"><g clip-path="url(#626c8ddfa5)"><path stroke-linecap="butt" transform="matrix(0.75, 0, 0, 0.75, 16.9595, 48.994336)" fill="none" stroke-linejoin="miter" d="M 12.996709 0.00234374 L 129.684216 0.00234374 C 133.132133 0.00234374 136.439425 1.372135 138.876925 3.809636 C 141.314425 6.247136 142.684217 9.549219 142.684217 12.997136 L 142.684217 56.346097 C 142.684217 59.794014 141.314425 63.096097 138.876925 65.538806 C 136.439425 67.976306 133.132133 69.346098 129.684216 69.346098 L 12.996709 69.346098 C 9.554001 69.346098 6.246709 67.976306 3.809209 65.538806 C 1.371709 63.096097 0.00191707 59.794014 0.00191707 56.346097 L 0.00191707 12.997136 C 0.00191707 9.549219 1.371709 6.247136 3.809209 3.809636 C 6.246709 1.372135 9.554001 0.00234374 12.996709 0.00234374 Z M 12.996709 0.00234374 " stroke="#000000" stroke-width="8" stroke-opacity="1" stroke-miterlimit="4"/></g></g><g clip-path="url(#6c61f0142a)"><path fill="#ffffff" d="M 56.632812 94.976562 L 30.003906 94.976562 C 26.289062 94.976562 23.28125 91.964844 23.28125 88.25 L 23.28125 61.625 C 23.28125 57.910156 26.289062 54.898438 30.003906 54.898438 L 56.632812 54.898438 C 60.347656 54.898438 63.359375 57.910156 63.359375 61.625 L 63.359375 88.25 C 63.359375 91.964844 60.347656 94.976562 56.632812 94.976562 Z M 56.632812 94.976562 " fill-opacity="1" fill-rule="nonzero"/></g><path fill="#000000" d="M 57.441406 65.070312 C 56.40625 64.035156 54.71875 64.035156 53.679688 65.070312 L 39.578125 79.175781 L 33.023438 72.632812 C 31.988281 71.597656 30.300781 71.597656 29.265625 72.632812 C 28.230469 73.667969 28.230469 75.355469 29.265625 76.390625 L 37.59375 84.71875 C 37.617188 84.753906 37.652344 84.777344 37.6875 84.8125 C 38.210938 85.335938 38.890625 85.597656 39.566406 85.589844 C 40.246094 85.589844 40.933594 85.328125 41.449219 84.8125 C 41.480469 84.777344 41.507812 84.753906 41.542969 84.71875 L 57.441406 68.820312 C 58.484375 67.785156 58.484375 66.105469 57.441406 65.070312 Z M 57.441406 65.070312 " fill-opacity="1" fill-rule="nonzero"/></svg>